<?xml version="1.0" encoding="UTF-8"?>
<svg xmlns="http://www.w3.org/2000/svg" xmlns:xlink="http://www.w3.org/1999/xlink" viewBox="0 0 285.34 249.96">
  <defs>
    <style>
      .cls-1 {
        fill: url(#Unbenannter_Verlauf_13-17);
      }

      .cls-2 {
        fill: url(#Unbenannter_Verlauf_13-28);
      }

      .cls-3 {
        fill: url(#Unbenannter_Verlauf_13-22);
      }

      .cls-4 {
        fill: url(#Unbenannter_Verlauf_13-29);
      }

      .cls-5 {
        fill: url(#Unbenannter_Verlauf_13-2);
      }

      .cls-6 {
        fill: url(#Unbenannter_Verlauf_13-12);
      }

      .cls-7 {
        fill: url(#Unbenannter_Verlauf_13-14);
      }

      .cls-8 {
        fill: url(#Unbenannter_Verlauf_13-7);
      }

      .cls-9 {
        fill: #951b81;
      }

      .cls-10 {
        fill: url(#Unbenannter_Verlauf_13-31);
      }

      .cls-11 {
        fill: url(#Sehr_weiche_schwarze_Vignette);
      }

      .cls-12 {
        fill: url(#Unbenannter_Verlauf_13-26);
      }

      .cls-13 {
        fill: url(#Unbenannter_Verlauf_13-23);
      }

      .cls-14 {
        fill: url(#Unbenannter_Verlauf_13-3);
      }

      .cls-15 {
        fill: url(#Unbenannter_Verlauf_13-11);
      }

      .cls-16 {
        fill: url(#Unbenannter_Verlauf_13-13);
      }

      .cls-17 {
        fill: url(#Unbenannter_Verlauf_13-19);
      }

      .cls-18 {
        fill: url(#Unbenannter_Verlauf_13-8);
      }

      .cls-19 {
        fill: url(#Unbenannter_Verlauf_13);
      }

      .cls-20 {
        fill: url(#Unbenannter_Verlauf_13-21);
      }

      .cls-21 {
        fill: url(#Unbenannter_Verlauf_13-27);
      }

      .cls-22 {
        fill: url(#Unbenannter_Verlauf_13-10);
      }

      .cls-23 {
        fill: url(#Unbenannter_Verlauf_13-15);
      }

      .cls-24 {
        fill: url(#Unbenannter_Verlauf_13-20);
      }

      .cls-25 {
        fill: #a3195b;
      }

      .cls-26 {
        fill: url(#Unbenannter_Verlauf_13-30);
      }

      .cls-27 {
        fill: url(#Unbenannter_Verlauf_13-6);
      }

      .cls-28 {
        fill: url(#Unbenannter_Verlauf_13-18);
      }

      .cls-29 {
        fill: url(#Unbenannter_Verlauf_13-24);
      }

      .cls-30 {
        fill: url(#Unbenannter_Verlauf_13-16);
      }

      .cls-31 {
        fill: #ffed00;
      }

      .cls-32 {
        fill: url(#Unbenannter_Verlauf_13-9);
      }

      .cls-33 {
        fill: url(#Unbenannter_Verlauf_13-25);
      }

      .cls-34 {
        fill: url(#Unbenannter_Verlauf_13-4);
      }

      .cls-35 {
        fill: #1d1d1b;
      }

      .cls-36 {
        fill: url(#Unbenannter_Verlauf_13-5);
      }
    </style>
    <radialGradient id="Unbenannter_Verlauf_13" data-name="Unbenannter Verlauf 13" cx="183.77" cy="25.77" fx="183.77" fy="25.77" r="29.49" gradientUnits="userSpaceOnUse">
      <stop offset=".2" stop-color="#d9de57" stop-opacity=".95"/>
      <stop offset=".26" stop-color="#d6dc54" stop-opacity=".94"/>
      <stop offset=".34" stop-color="#cdd94d" stop-opacity=".9"/>
      <stop offset=".42" stop-color="#bfd341" stop-opacity=".84"/>
      <stop offset=".5" stop-color="#abca31" stop-opacity=".75"/>
      <stop offset=".57" stop-color="#95c11f" stop-opacity=".65"/>
      <stop offset=".59" stop-color="#9bc42c" stop-opacity=".61"/>
      <stop offset=".78" stop-color="#d0e49d" stop-opacity=".28"/>
      <stop offset=".91" stop-color="#f2f7e4" stop-opacity=".08"/>
      <stop offset=".98" stop-color="#fff" stop-opacity="0"/>
    </radialGradient>
    <radialGradient id="Unbenannter_Verlauf_13-2" data-name="Unbenannter Verlauf 13" cx="236.25" cy="73.9" fx="236.25" fy="73.9" r="29.03" xlink:href="#Unbenannter_Verlauf_13"/>
    <radialGradient id="Unbenannter_Verlauf_13-3" data-name="Unbenannter Verlauf 13" cx="213.87" cy="147.7" fx="213.87" fy="147.7" r="22.04" xlink:href="#Unbenannter_Verlauf_13"/>
    <radialGradient id="Unbenannter_Verlauf_13-4" data-name="Unbenannter Verlauf 13" cx="234.57" cy="92.13" fx="234.57" fy="92.13" r="16" xlink:href="#Unbenannter_Verlauf_13"/>
    <radialGradient id="Unbenannter_Verlauf_13-5" data-name="Unbenannter Verlauf 13" cx="228.36" cy="134.42" fx="228.36" fy="134.42" r="19.35" xlink:href="#Unbenannter_Verlauf_13"/>
    <radialGradient id="Unbenannter_Verlauf_13-6" data-name="Unbenannter Verlauf 13" cx="160.41" cy="165.79" fx="160.41" fy="165.79" r="22.76" xlink:href="#Unbenannter_Verlauf_13"/>
    <radialGradient id="Unbenannter_Verlauf_13-7" data-name="Unbenannter Verlauf 13" cx="102.86" cy="146.96" fx="102.86" fy="146.96" r="18.05" xlink:href="#Unbenannter_Verlauf_13"/>
    <radialGradient id="Unbenannter_Verlauf_13-8" data-name="Unbenannter Verlauf 13" cx="68.86" cy="123.04" fx="68.86" fy="123.04" r="21.38" xlink:href="#Unbenannter_Verlauf_13"/>
    <radialGradient id="Unbenannter_Verlauf_13-9" data-name="Unbenannter Verlauf 13" cx="49.53" cy="78.05" fx="49.53" fy="78.05" r="19.23" xlink:href="#Unbenannter_Verlauf_13"/>
    <radialGradient id="Unbenannter_Verlauf_13-10" data-name="Unbenannter Verlauf 13" cx="75.45" cy="45.08" fx="75.45" fy="45.08" r="13.68" xlink:href="#Unbenannter_Verlauf_13"/>
    <radialGradient id="Unbenannter_Verlauf_13-11" data-name="Unbenannter Verlauf 13" cx="110.51" cy="29.91" fx="110.51" fy="29.91" r="13.66" xlink:href="#Unbenannter_Verlauf_13"/>
    <radialGradient id="Unbenannter_Verlauf_13-12" data-name="Unbenannter Verlauf 13" cx="136.18" cy="24.78" fx="136.18" fy="24.78" r="12.74" xlink:href="#Unbenannter_Verlauf_13"/>
    <radialGradient id="Unbenannter_Verlauf_13-13" data-name="Unbenannter Verlauf 13" cx="231.57" cy="33.06" fx="231.57" fy="33.06" r="21.41" xlink:href="#Unbenannter_Verlauf_13"/>
    <radialGradient id="Unbenannter_Verlauf_13-14" data-name="Unbenannter Verlauf 13" cx="246.24" cy="115.79" fx="246.24" fy="115.79" r="20.09" xlink:href="#Unbenannter_Verlauf_13"/>
    <radialGradient id="Unbenannter_Verlauf_13-15" data-name="Unbenannter Verlauf 13" cx="189.34" cy="167.12" fx="189.34" fy="167.12" r="19.33" xlink:href="#Unbenannter_Verlauf_13"/>
    <radialGradient id="Unbenannter_Verlauf_13-16" data-name="Unbenannter Verlauf 13" cx="120.8" cy="166.99" fx="120.8" fy="166.99" r="17.05" xlink:href="#Unbenannter_Verlauf_13"/>
    <radialGradient id="Unbenannter_Verlauf_13-17" data-name="Unbenannter Verlauf 13" cx="51.87" cy="109.36" fx="51.87" fy="109.36" r="18.74" xlink:href="#Unbenannter_Verlauf_13"/>
    <radialGradient id="Unbenannter_Verlauf_13-18" data-name="Unbenannter Verlauf 13" cx="63.68" cy="63.08" fx="63.68" fy="63.08" r="15.42" xlink:href="#Unbenannter_Verlauf_13"/>
    <radialGradient id="Unbenannter_Verlauf_13-19" data-name="Unbenannter Verlauf 13" cx="105.32" cy="28.11" fx="105.32" fy="28.11" r="17.09" xlink:href="#Unbenannter_Verlauf_13"/>
    <radialGradient id="Unbenannter_Verlauf_13-20" data-name="Unbenannter Verlauf 13" cx="128.01" cy="26.23" fx="128.01" fy="26.23" r="13.71" xlink:href="#Unbenannter_Verlauf_13"/>
    <radialGradient id="Unbenannter_Verlauf_13-21" data-name="Unbenannter Verlauf 13" cx="151.17" cy="27.3" fx="151.17" fy="27.3" r="16.72" xlink:href="#Unbenannter_Verlauf_13"/>
    <radialGradient id="Unbenannter_Verlauf_13-22" data-name="Unbenannter Verlauf 13" cx="50.33" cy="101.04" fx="50.33" fy="101.04" r="11.71" xlink:href="#Unbenannter_Verlauf_13"/>
    <radialGradient id="Unbenannter_Verlauf_13-23" data-name="Unbenannter Verlauf 13" cx="149.87" cy="163.22" fx="149.87" fy="163.22" r="13.27" xlink:href="#Unbenannter_Verlauf_13"/>
    <radialGradient id="Unbenannter_Verlauf_13-24" data-name="Unbenannter Verlauf 13" cx="76.36" cy="143.45" fx="76.36" fy="143.45" r="12.89" xlink:href="#Unbenannter_Verlauf_13"/>
    <radialGradient id="Unbenannter_Verlauf_13-25" data-name="Unbenannter Verlauf 13" cx="242.51" cy="113.69" fx="242.51" fy="113.69" r="11.96" xlink:href="#Unbenannter_Verlauf_13"/>
    <radialGradient id="Unbenannter_Verlauf_13-26" data-name="Unbenannter Verlauf 13" cx="212.62" cy="29.99" fx="212.62" fy="29.99" r="10.88" xlink:href="#Unbenannter_Verlauf_13"/>
    <radialGradient id="Unbenannter_Verlauf_13-27" data-name="Unbenannter Verlauf 13" cx="241.64" cy="79.42" fx="241.64" fy="79.42" r="13.24" xlink:href="#Unbenannter_Verlauf_13"/>
    <radialGradient id="Unbenannter_Verlauf_13-28" data-name="Unbenannter Verlauf 13" cx="238.33" cy="110.01" fx="238.33" fy="110.01" r="15.32" xlink:href="#Unbenannter_Verlauf_13"/>
    <radialGradient id="Unbenannter_Verlauf_13-29" data-name="Unbenannter Verlauf 13" cx="162.9" cy="13.13" fx="162.9" fy="13.13" r="12.65" xlink:href="#Unbenannter_Verlauf_13"/>
    <radialGradient id="Unbenannter_Verlauf_13-30" data-name="Unbenannter Verlauf 13" cx="87.34" cy="39.94" fx="87.34" fy="39.94" r="11.06" xlink:href="#Unbenannter_Verlauf_13"/>
    <radialGradient id="Unbenannter_Verlauf_13-31" data-name="Unbenannter Verlauf 13" cx="59.56" cy="76.36" fx="59.56" fy="76.36" r="20.21" xlink:href="#Unbenannter_Verlauf_13"/>
    <radialGradient id="Sehr_weiche_schwarze_Vignette" data-name="Sehr weiche schwarze Vignette" cx="151.46" cy="96.22" fx="151.46" fy="96.22" r="70.17" gradientUnits="userSpaceOnUse">
      <stop offset=".57" stop-color="#161412" stop-opacity="0"/>
      <stop offset=".8" stop-color="#161412" stop-opacity=".65"/>
      <stop offset=".83" stop-color="#161412" stop-opacity=".74"/>
      <stop offset="1" stop-color="#161412" stop-opacity=".95"/>
    </radialGradient>
  </defs>
  <g id="body">
    <path class="cls-19" d="m149.23,46.27c11.37-10.37,20.82-22.7,27.82-36.41l-4.47-2.06c-.19,2.98-.39,5.96-.58,8.94-.17,2.68-.62,5.53-.23,8.21.74,4.97,5.55,7.91,10.16,8.72,9.99,1.77,18.4-5.47,24.99-11.95,4.06-3.98,8.08-8.07,13.12-10.83l-4.2-2.55c-4.52,4.7-8.84,10.1-9.85,16.74-.91,5.96,1.28,11.77,6.08,15.44.62.48,2.28,1.35,3.06.79.84-.6-.51-1.65-.93-1.97-3.86-2.96-4.51-9.19-3.47-13.59,1.4-5.91,5.42-10.78,9.53-15.06.56-.59-1.14-1.76-1.43-1.93-.69-.42-1.96-1.07-2.78-.62-7.86,4.31-13.12,11.79-20.17,17.15-3.41,2.59-7.3,4.82-11.59,5.46-1.78.27-3.76.35-5.47-.29-1.58-.6-2.28-2.14-2.52-3.74-.4-2.67.05-5.53.23-8.21.19-2.98.39-5.96.58-8.94.08-1.21-3.81-3.35-4.47-2.06-6.9,13.51-16.19,25.77-27.4,36-1.24,1.13,2.95,3.71,3.99,2.76h0Z"/>
    <path class="cls-5" d="m207.23,52.96c5.46,4.33,12.55,5.22,19.31,4.58,7.52-.72,14.82-3.21,21.83-5.9,4.54-1.75,8.99-3.71,13.36-5.85l-2.93-.86c-7.85,7.45-15.7,14.9-23.54,22.34-1.93,1.83-3.87,3.66-5.8,5.5-1.17,1.12-3.18,3.5-1,4.73.95.53,2.21.52,3.26.64,1.29.14,2.58.27,3.87.37,2.66.21,5.33.33,8.01.37,5.93.08,11.86-.27,17.74-1.02l-1.38-1.09c-3.74,5.03-3.94,11.5-5.84,17.26-.88,2.67-2.26,5.3-4.61,6.96-2.15,1.52-4.93,1.83-7.5,1.81-3.66-.03-7.27-.72-10.83-1.53-1.12-.26-2.43.2-3.34.85-.5.36-1.43,1.48-.3,1.74,7.01,1.6,14.79,2.86,21.63-.12,3.37-1.47,6.26-3.83,8.04-7.08,1.64-2.98,2.37-6.35,3.11-9.64.85-3.77,1.71-7.6,4.06-10.75.69-.93-.81-1.17-1.38-1.09-9.47,1.21-19.05,1.3-28.55.24-.75-.08-2.46.04-2.2-1.13.2-.91,1.51-1.75,2.14-2.35l5.43-5.16c3.56-3.38,7.12-6.76,10.68-10.14,4.04-3.84,8.09-7.68,12.13-11.52.51-.49.61-1.12-.12-1.39-.87-.33-2.06.16-2.82.54-8.21,4.02-16.95,7.68-25.9,9.68-7.56,1.69-15.96,1.77-22.31-3.26-1.21-.96-5.54,1.29-4.29,2.28h0Z"/>
    <path class="cls-14" d="m203.5,134.69c6.13,14.39,23.25,17.26,36.98,19l-1.6-2.69c-6.11,3.99-12.71,8.36-20.31,8.14s-14.55-3.93-20.54-8.37c-3.52-2.61-6.82-5.51-10.1-8.41-1.46-1.29-5.9-.06-3.66,1.91,6.34,5.59,12.82,11.24,20.64,14.67,7.82,3.43,16.66,4.41,24.75,1.34,4.52-1.72,8.59-4.29,12.62-6.92,1.9-1.24-.2-2.51-1.6-2.69-12-1.52-26.94-3.89-32.31-16.48-.77-1.8-5.73-1.53-4.86.5h0Z"/>
    <path class="cls-34" d="m229.12,74.07c-4.68,6.9-4.29,16.27.48,23,2.15,3.03,5.24,5.53,8.67,6.97,1.75.73,3.55,1.12,5.41,1.47,1.37.26,3.13.47,4.08,1.6l-.63-2.4c-.23.98-4.26.92-4.93.97-2.5.21-5.01.34-7.53.39-5.1.09-10.18-.2-15.24-.81-2.92-.35-2.29,4.44.16,4.74,5.89.71,11.83,1,17.76.81,2.91-.09,5.83-.28,8.73-.61,2.14-.24,4.54-1.02,5.05-3.4.62-2.91-2.91-4.75-5.18-5.46-2-.62-4.13-.72-6.11-1.43-3.9-1.39-7.16-4.35-8.83-8.15-2.11-4.8-1.1-10.46,1.78-14.7,1.38-2.03-2.02-5.43-3.68-2.99h0Z"/>
    <path class="cls-36" d="m217.41,127.06c7.03,10.19,18.02,17.02,30.24,18.94l2.09-2.95c-8.82.67-18.26,1.34-26.4-2.8-7.44-3.79-12.54-10.94-17.25-17.58-1.08-1.52-5.54.59-4.65,1.84,3.95,5.56,8.01,11.29,13.49,15.46,5.85,4.46,12.91,6.24,20.17,6.49,4.37.15,8.73-.14,13.09-.47,1.01-.08,2.31-.61,2.88-1.49.51-.79.1-1.32-.79-1.46-11.3-1.78-21.73-8.43-28.22-17.83-1.06-1.53-5.53.57-4.65,1.84h0Z"/>
    <path class="cls-27" d="m156.17,147.81c-1.94,6.85,2.82,13.46,8.17,17.25,3.16,2.24,6.72,3.85,10.21,5.51,1.71.81,3.41,1.64,5.06,2.56,1.29.72,4.07,1.88,4.27,3.57.11.89-.59,1.3-1.29,1.64-.96.47-1.94.9-2.91,1.33-1.88.83-3.79,1.61-5.75,2.21-3.36,1.02-6.97,1.46-10.44.79-6.77-1.3-12.83-6.09-17-11.4-5.26-6.7-8.17-14.92-9.57-23.25-.19-1.15-4.93-1.17-4.9-.99,1.32,7.82,3.96,15.56,8.59,22.06s11.06,11.17,18.6,13.5c3.95,1.22,8.13,1.92,12.27,1.74s8.33-1.48,12.24-3.17c.98-.42,1.95-.87,2.92-1.32.68-.31,1.64-.63,2-1.36.85-1.7-1.73-3.18-2.85-3.88-3.56-2.23-7.45-3.84-11.19-5.71-4.1-2.05-7.98-4.47-10.77-8.2-2.56-3.43-3.96-7.66-2.77-11.89.16-.58-4.67-1.79-4.9-.99h0Z"/>
    <path class="cls-8" d="m121.97,138.08c-1.39,7.07-8.59,10.65-14.61,13.21-7.89,3.36-16.25,5.53-24.78,6.45l1.62,2c4.41-4.17,8.43-8.78,11.93-13.74,2.04-2.9,7.57-9.65,2.93-12.69-1.45-.95-5.91,1.04-3.87,2.37,1.45.95.52,3.43-.11,4.6-1.2,2.25-2.75,4.38-4.25,6.44-3.13,4.3-6.66,8.28-10.52,11.93-1.34,1.26.39,2.13,1.62,2,9.71-1.05,19.26-3.52,28.21-7.44,6.9-3.02,15.12-7.46,16.71-15.56.4-2.02-4.51-1.38-4.86.41h0Z"/>
    <path class="cls-18" d="m93.87,119.56c-11.4,9.99-26.36,15.43-41.52,15.02-1.87-.05-4.12-.02-5.47-1.54-1.19-1.35-1.47-3.35-1.76-5.05l-3.38,2.6c4.71,1.43,9.7,1.37,14.57,1.07,4.2-.26,8.42-.8,12.34-2.43s7.06-4.56,9.07-8.3,2.86-7.9,3.64-11.99c.55-2.85-4.27-2.17-4.72.18-1.28,6.68-2.93,14.16-10.03,16.82-3.28,1.23-6.86,1.5-10.33,1.69-4.24.23-8.45.22-12.55-1.03-1.4-.42-3.64,1.02-3.38,2.6.69,4.13,2.08,7.9,6.55,9,2.14.53,4.49.47,6.68.45s4.24-.14,6.34-.37c8.58-.94,16.99-3.51,24.6-7.61,4.35-2.34,8.44-5.16,12.16-8.42.8-.7,1.45-1.98.53-2.87-.86-.84-2.51-.57-3.35.17h0Z"/>
    <path class="cls-32" d="m73.64,86.81c-6.94.87-14.26,1.84-20.93-.84s-12.05-7.25-17.51-11.4c-1.39-1.06-2.78-2.13-4.15-3.22-1.04-.83-2.29-1.57-2.78-2.84-.05-.13.1-.38.06-.42-.34-.34-1.36-.13-1.11.26s.88.86,1.21,1.23c1.09,1.23,2.16,2.47,3.27,3.69,4.21,4.63,9.06,9.09,15.34,10.5s12.95-.18,16.54-5.49c1.69-2.5-2.94-4.08-4.42-1.89-2.87,4.24-8.94,4.4-13.26,2.54-6.12-2.62-9.8-8.27-14.32-12.83-1.35-1.36-3.11-2.26-5.07-1.78-1.71.42-2.94,1.83-3.18,3.56-.52,3.73,3.71,6.12,6.21,8.07,5.92,4.6,12.02,9.55,18.8,12.85,8.09,3.94,16.84,3.28,25.5,2.19,1.16-.15,2.46-.86,2.39-2.21-.06-1.22-1.44-2.11-2.6-1.96h0Z"/>
    <path class="cls-22" d="m79.38,56.62c-7.82-4.79-13.44-12.74-15.84-21.55-.21-.76-3.89-2.64-4.51-1.94-2.03,2.3,1.28,5.22,3.09,6.38,3.08,1.97,6.65,3.4,10.15,4.4,6.67,1.91,13.73,2.12,20.45.29.67-.18-1.19-1.28-1.3-1.34-.71-.38-2.08-1.19-2.95-.95-5.24,1.43-10.79,1.67-16.11.56-2.31-.48-4.59-1.2-6.7-2.27-1.7-.86-3.71-3.12-2.09-4.95l-4.51-1.94c2.64,9.69,9.12,17.88,17.65,23.11.78.48,2.22,1.42,3.18,1.27.91-.15-.06-.78-.5-1.05h0Z"/>
    <path class="cls-15" d="m104,31.68c-1.14-5.34-2.28-10.69-3.43-16.03-.22-1.04-1.37-2.02-2.35-2.3-.73-.2-1.95-.06-1.8,1.02,1.14,8.22,2.43,17.1,7.91,23.71,4.74,5.71,12.55,9.81,20,7.34,2.05-.68-1.14-4.47-3.02-3.84-5.56,1.84-11.38-1.16-14.69-5.64-4.13-5.6-5.03-13.1-5.96-19.8l-4.15-1.27c1.14,5.34,2.28,10.69,3.43,16.03.24,1.11,1.52,2.2,2.62,2.38s1.68-.54,1.45-1.6h0Z"/>
    <path class="cls-6" d="m127.86,35.51c-1.21-7.01-1.6-14.12-1.18-21.21l-4.86,1.17c3.28,11.41,13.21,20.38,24.86,22.59,1.12.21,2.37-.05,3.39-.52.37-.17,1.73-1.06.62-1.27-11.32-2.15-20.83-10.91-24.01-21.97-.33-1.15-4.79,0-4.86,1.17-.42,7.1-.03,14.21,1.18,21.21.18,1.05,5.07.05,4.86-1.17h0Z"/>
    <path class="cls-16" d="m207.63,41.45c17.56-5.68,34.49-13.19,50.46-22.45l-2.91-4.07c-3.09,2.52-4.4,6.41-5.99,9.93s-3.45,7.21-5.72,10.5c-4.29,6.22-10.57,11.13-18.34,11.57-3.77.22-7.6-.68-10.42-3.29-.55-.5-1.6-.93-1.71.12s.96,2.34,1.68,3.01c5.65,5.2,13.88,5.48,20.66,2.44,7.47-3.35,12.27-10.72,15.74-17.82,1.04-2.12,1.96-4.3,2.93-6.45s2.15-4.37,4.08-5.95c1.18-.96-1.58-4.84-2.91-4.07-15.79,9.16-32.53,16.65-49.89,22.27-1.64.53,1.01,4.68,2.34,4.25h0Z"/>
    <path class="cls-7" d="m228.88,112.84c2.12,2.99,4.52,5.82,7.52,7.96,3.28,2.33,7.11,3.39,11.02,4.09,4.21.76,8.46,1.34,12.69,2,4.5.7,8.8,1.01,13.19-.51-.02,0,.73-.23.67-.39-.99-2.94-4.08-3.89-6.88-4.24-3.89-.49-7.88-.04-11.79-.27-8.44-.5-16.95-2.57-23.81-7.73-3.47-2.61-6.34-5.96-8.24-9.87-.42-.86-4.99.72-4.93.85,3.27,6.75,9.43,11.66,16.29,14.45,4.1,1.67,8.47,2.61,12.86,3.1s8.6.39,12.92.42c3.24.03,7.45.6,8.65,4.14l.67-.39c.83-.29-.11-.02-.46-.03-.45-.02-.89-.06-1.34-.11-.9-.1-1.79-.24-2.69-.38-1.73-.27-3.47-.54-5.2-.81-3.63-.56-7.31-1-10.89-1.85-3.21-.77-6.22-2.03-8.84-4.08s-4.64-4.55-6.51-7.19c-.34-.48-2.07-.03-2.53.05-.17.03-2.54.6-2.4.81h0Z"/>
    <path class="cls-23" d="m186.31,159.85c1.73,5.13,4.57,9.84,8.29,13.78,1.82,1.94,3.87,3.55,5.97,5.17.9.69,1.79,1.4,2.6,2.2.42.41.81.84,1.15,1.32.44.61.63,1.33,1.02,1.95.26.42-.32.41.25.17-.17.07-.34.12-.52.15-.35.06-.72.05-1.07,0-1.34-.22-2.61-.97-3.73-1.7-2.43-1.58-4.55-3.67-6.73-5.56-4.59-3.98-9.47-7.8-13.64-12.24s-7.76-10.77-6.37-17.21c.51-2.35-4.44-2.46-4.87-.47-1.42,6.57,1.35,12.85,5.49,17.85,4.38,5.29,10.05,9.55,15.22,14.03,4.74,4.11,10.38,10,17.33,8.28,1.34-.33,3.06-.98,3.56-2.41.47-1.35-.45-2.98-1.2-4.07-1.69-2.44-4.14-4.05-6.43-5.86-5.41-4.29-9.38-10.07-11.58-16.61-.64-1.91-5.51-1.06-4.74,1.23h0Z"/>
    <path class="cls-30" d="m131.65,150.53c3.35,10.89-.69,23.19-10.18,29.62-2.22,1.5-4.66,2.68-7.22,3.47-1.31.41-2.66.72-4.03.9-.63.09-1.27.14-1.9.18-.28.02-.58-.02-.85.04,1.74.67,2.27.73,1.61.18l-.21-.31c-.51-1.13,1.03-2.74,1.58-3.6.87-1.36,1.7-2.75,2.5-4.15,1.52-2.68,2.91-5.44,4.16-8.26,2.84-6.38,4.96-13.05,6.35-19.89.12-.59-4.77-1.62-4.89-1.05-1.38,6.77-3.47,13.38-6.26,19.69-1.37,3.09-2.89,6.11-4.58,9.03-.81,1.4-1.65,2.78-2.52,4.14-.66,1.03-1.96,2.41-.88,3.59,1.01,1.1,3.1,1.42,4.48,1.67,1.54.27,3.06.29,4.62.14,2.89-.27,5.72-1,8.38-2.16,5.35-2.34,9.95-6.41,12.73-11.56,3.39-6.28,4.12-13.82,2.02-20.63-.18-.59-1.86-.81-2.36-.91-.17-.04-2.6-.35-2.53-.13h0Z"/>
    <path class="cls-1" d="m64.09,99.43c-9.43,9.72-23.27,14.67-36.71,13.55l-.69,4.49c8.95.62,17.91,1.24,26.86,1.87,4.42.31,8.89.85,13.32.89,3.55.03,6.81-1.41,8.78-4.44s2.65-6.58,3.02-10.09c.32-3.06-4.55-2.93-4.84-.16-.31,2.99-.72,6.85-2.98,9.1-.98.98-2.44,1.16-4.16,1.08-2.59-.13-5.18-.36-7.77-.53-10.52-.73-21.03-1.46-31.55-2.19-2.92-.2-3.92,4.22-.69,4.49,15.3,1.27,30.63-4.71,41.28-15.69.86-.89.55-2.47-.46-3.09-1.2-.73-2.55-.17-3.43.74h0Z"/>
    <path class="cls-28" d="m70.46,63.14c-4.92.09-9.83.23-14.49-1.59-2.02-.79-3.94-1.86-5.61-3.24-.87-.72-1.71-1.53-2.37-2.44s-.6-2.18.8-2.31l-2.83-.06c-1.37-.13-.48.05-.02.43.33.27.62.58.91.88.57.58,1.14,1.16,1.73,1.72,1.27,1.22,2.6,2.38,3.97,3.49,2.75,2.21,5.68,4.2,8.76,5.92,6.12,3.43,12.78,5.8,19.67,7.11,1.14.22,2.36.33,3.53.25.76-.05.97-.25.03-.43-10.32-1.97-20.07-6.7-28.11-13.45-1.99-1.67-3.68-3.68-5.67-5.32-.99-.82-2.19-.98-3.44-1.1s-3.19-.45-4.27.42c-1.78,1.44,1.69,4.07,2.78,4.94,1.93,1.54,4.16,2.63,6.49,3.43,6.55,2.26,13.77,2.17,20.61,2.04.35,0,1.68.1.92-.35s-2.54-.37-3.4-.35h0Z"/>
    <path class="cls-17" d="m99.23,36.51c-2.97-8.79-6.27-19.29-.5-27.7l-4.22.23c2.98,1.66,3.25,5.99,3.43,9,.25,4.21-.08,8.44.2,12.65.47,7.1,2.93,14.33,9.84,17.49,3.57,1.63,7.98,1.92,11.55.15.93-.46,1.03-1.31.17-1.93s-2.53-.81-3.52-.31c-3.03,1.5-6.3.09-8.52-2.23-2.9-3.04-4.05-7.41-4.44-11.48-.46-4.77.01-9.58-.33-14.36-.27-3.88-.94-8.5-4.69-10.59-1.12-.62-3.34-1.05-4.22.23-6.07,8.86-2.76,19.89.37,29.16.57,1.69,5.53,1.66,4.87-.3h0Z"/>
    <path class="cls-24" d="m138.71,30.54c-4.88-1.82-10.23-3.81-13.56-8.05-2.83-3.61-4-9.24-.96-13.08l-4.79,1.06c2.63,10.62-2.9,25.21,6.76,33.36.44.37,2.01-.18,2.5-.3.21-.05,2.38-.84,2.37-.86-9.66-8.15-4.12-22.74-6.76-33.36-.1-.41-4.46.65-4.79,1.06-3.11,3.94-2.12,9.52.82,13.27,3.36,4.29,8.83,6.31,13.77,8.16.78.29,2.27-.31,3.04-.52.25-.07,1.89-.65,1.62-.75h0Z"/>
    <path class="cls-20" d="m149.61,22.93c-2.95-4.99-2.69-11.54.64-16.29l-3.87-.12c.49.48.38,1.51.38,2.16,0,1.27-.07,2.53-.19,3.79-.21,2.37-.59,4.73-.97,7.08-.73,4.5-1.51,9.02-1.32,13.59.33,8.1,4.44,18.49,14.01,18.45,1.17,0,2.1-1.17,1.79-2.3-.36-1.31-1.74-1.86-2.97-1.85-3.18.01-5.46-3.64-6.47-6.21-1.46-3.71-1.66-7.75-1.4-11.69.3-4.41,1.22-8.74,1.83-13.11.31-2.2.54-4.41.57-6.62.03-2.09-.13-4.16-1.71-5.7-.91-.89-2.98-1.38-3.87-.12-4.22,6.02-4.53,14.11-.78,20.44,1.33,2.25,5.91,1.23,4.3-1.49h0Z"/>
    <path class="cls-3" d="m60.45,92.17c-7.08,4.94-15.58,7.82-24.24,7.79-.17,0-1.56.01-1.21.42,1.91,2.22,3.89,4.45,6.27,6.18s5.29,2.84,8.34,3.24,6.17.1,9.01-1.22,5.37-3.43,7.76-5.5c.49-.43-1.48-.8-1.66-.83-.66-.12-2.49-.56-3.1-.03-1.83,1.59-3.7,3.17-5.78,4.44-1.67,1.02-4.39,2.38-6.12,2.15.25.03.02,0-.09-.04-.23-.07-.45-.15-.68-.23-.52-.21-1.03-.47-1.51-.75-.98-.56-1.88-1.24-2.73-1.97-1.79-1.53-3.37-3.31-4.9-5.1l-1.21.42c9.48.03,18.79-2.66,26.59-8.1.54-.37-1.52-.81-1.66-.83-.75-.14-2.39-.52-3.1-.03h0Z"/>
    <path class="cls-13" d="m141,154.38c-1.31,11.79,8.46,22.04,19.76,23.62.99.14,2.87-.11,1.51-1.32-4.57-4.06-8.86-8.41-12.87-13.02-3.69-4.25-7.31-8.75-8.72-14.31-.36-1.4-5.14-2.18-4.79-.78,1.46,5.76,5.26,10.51,9.08,14.91,4.2,4.84,8.73,9.37,13.51,13.62l1.51-1.32c-9.04-1.26-15.14-11.42-14.18-20.06.17-1.54-4.68-2.59-4.82-1.34h0Z"/>
    <path class="cls-29" d="m82.3,134.17c.56,4.43-2.78,7.94-6.48,9.84-4.84,2.48-10.31,3.32-15.03,6.12-1.45.86-1.56,2.68.07,3.33,3.66,1.44,7.66,1.34,11.49.82s7.67-1.13,11.24-2.47c3.37-1.26,6.53-3.35,8.4-6.5,1.68-2.83,2.35-6.36.86-9.42-.54-1.12-1.92-1.29-3-.88-.9.34-2.22,1.52-1.68,2.64,1.12,2.3.67,4.79-.72,6.88-1.47,2.22-3.91,3.39-6.37,4.16-2.82.89-5.84,1.33-8.76,1.72-3.09.42-6.15.47-9.09-.69l.07,3.33c5.03-2.98,11.08-3.66,16.08-6.73,4.38-2.69,8.47-7.46,7.77-12.92-.34-2.67-5.17-1.6-4.86.76h0Z"/>
    <path class="cls-33" d="m229.63,108.14c7.37,7.07,18.31,9.76,28.05,6.51l-2.56-4.3c-2.78,4.24-7.56,6.42-12.36,7.53-2.8.65-5.76,1.11-8.62.61-1.33-.23-2.61-.67-3.72-1.44-.34-.24-.73-.5-.99-.83-.13-.17.01.04.04.1-.11-.24-.12-.57-.14-.82-.12-1.1-.84-2.24-1.54-3.06-.25-.3-1.38-1.37-1.26-.29.36,3.38,2.51,6.74,5.21,8.76s6.16,2.34,9.45,1.99c6.12-.64,12.96-2.85,16.49-8.24.57-.87-1.46-4.66-2.56-4.3-9,3-19.58.86-26.47-5.75-.66-.63-1.03-.35-.83.5.26,1.08,1.01,2.27,1.81,3.04h0Z"/>
    <path class="cls-12" d="m202.61,34.3c7.5-3.85,15.01-7.7,22.51-11.55l-2.87-3.68c.47,2.03-1.5,3.86-2.73,5.21-1.44,1.59-2.91,3.14-4.41,4.67-2.96,3-6.05,5.87-9.24,8.61-.64.55,2.42,4.48,2.86,4.1,3.41-2.92,6.69-5.99,9.82-9.21,1.54-1.58,3.06-3.19,4.52-4.85,1.36-1.53,2.54-3.16,2.05-5.29-.14-.6-2.08-4.09-2.87-3.68-7.5,3.85-15.01,7.7-22.51,11.55-.46.23,2.05,4.52,2.86,4.1h0Z"/>
    <path class="cls-21" d="m226.23,70.56c1.5,4.76,5.81,8.01,10.45,9.42,5.98,1.82,12.4.89,18.47.06l-1.11-.5c-3.37,3.27-7.44,5.86-11.97,7.16s-9.45,1.34-14.05.37c-1-.21-2.13.18-3.05.55-.17.07-2.05,1.11-1.43,1.24,12.12,2.53,25.91-1.45,34.81-10.07.75-.73-.76-.55-1.11-.5-5.51.76-11.37,1.55-16.76-.31-4.29-1.48-8.09-4.52-9.49-8.95-.26-.82-5.03.69-4.76,1.54h0Z"/>
    <path class="cls-2" d="m231.87,100.66c2.56,1.35,4.71,3.3,7.17,4.81,2.8,1.72,6.02,2.71,9.31,2.83,2.76.1,5.67-.57,7.56-2.72,1.75-1.99,2.26-4.68,1.25-7.13-.34-.81-4.31-1.53-4.85-.78-4.14,5.74-8.84,11.06-14.05,15.85-2.43,2.23-5.02,4.32-7.93,5.89-1.44.78-2.96,1.45-4.55,1.84-1.31.33-2.98.53-4,.27-.52-.14-2.71-.74-3.09-.19s1.3.93,1.59,1c3.83,1,7.73,1.05,11.49-.26s6.73-3.47,9.57-5.91c5.99-5.13,11.29-11.15,15.89-17.54l-4.85-.78c1.74,4.21-1.78,8.7-6.07,9.01-.18.01-.36.02-.53.02-.3-.01.28.08-.01.02-.42-.1-.82-.31-1.2-.5-.98-.49-1.9-1.11-2.8-1.75-1.82-1.29-3.57-2.67-5.55-3.72-1-.53-2.19-.78-3.32-.84-.29-.02-1.96.08-1.02.58h0Z"/>
    <path class="cls-4" d="m158.08,27.81c1.05-8.7,2.11-17.39,3.16-26.09l-4.8-1.06c.7,4.91,4.08,8.67,6.77,12.62,3.11,4.57,4.79,9.73,4.45,15.29-.08,1.38,4.77,2.26,4.83,1.29.33-5.55-1.22-10.84-4.3-15.45-2.73-4.08-6.27-7.9-6.99-12.94-.15-1.03-4.67-2.1-4.8-1.06-1.05,8.7-2.11,17.39-3.16,26.09-.16,1.32,4.7,2.33,4.83,1.29h0Z"/>
    <path class="cls-26" d="m94.43,43.63c-2.98.86-5.92-.65-7.87-2.9-2.57-2.97-3.76-6.89-4.85-10.59-.51-1.74-4.75-2.72-4.75-.28,0,2.7-.02,5.39-.02,8.09,0,2.38-.13,4.79.04,7.17.27,3.85,1.75,7.9,5.81,9.1.95.28,2.52.38,2.94-.8.39-1.1-.83-2.2-1.77-2.48-.17-.05-.34-.1-.51-.17.21.1.19.08-.08-.07.37.28-.41-.47-.21-.23-.4-.49-.63-1.07-.82-1.67-.45-1.4-.54-2.89-.56-4.35-.05-4.61.03-9.23.04-13.84l-4.75-.28c1.38,4.68,3.08,9.47,6.66,12.95s8.53,5.2,13.21,3.85c1.08-.31,1.48-1.39.83-2.32s-2.18-1.52-3.33-1.19h0Z"/>
    <path class="cls-10" d="m57.83,59.78c-4.77-1.54-9.24-3.74-13.39-6.56-1.24-.84-3.65-.1-4.09,1.39-1.37,4.72.6,9.12,2.39,13.43,1.68,4.04,2.64,8.29,4.08,12.41,1.34,3.84,3.26,7.51,6.29,10.29s6.35,4.54,10.03,5.94c4.15,1.57,8.51,2.49,12.86,3.35,1.21.24,2.6-.06,3.35-1.14.6-.87.34-2.21-.83-2.44-6.97-1.37-14.43-2.87-20.17-7.35-6.39-4.99-7.34-13.11-9.92-20.26-1.55-4.29-4.77-9.14-3.39-13.87l-4.09,1.39c4.43,3,9.28,5.36,14.37,7,1.16.37,2.66-.14,3.35-1.14s.28-2.09-.83-2.44h0Z"/>
  </g>
  <g id="hands_feet">
    <path class="cls-35" d="m130.37,189.12c-3.92.89-7.95-.53-11.9-.07-3.1.36-6.54,1.8-7.43,5.08-.84,3.08.68,6.39,3.37,8.02,1.9,1.15,3.93.98,5.99.42s3.94-1.19,5.86-1.93c1.05-.4,2.1-.83,3.13-1.29s2.27-.89,3.2-1.58c.66-.49,1.27-1.06,1.91-1.59.33-.28.19-.91.11-1.24-1.23-4.62-1.65-9.48-1.22-14.25.1-1.16-.72-2.17-1.67-2.77-.49-.31-2.35-1-2.46.16-.49,5.42-.03,10.77,1.37,16.03l.11-1.24-1.55,1.29c-.9.75-2.36,1.19-3.48,1.67-1.59.68-3.2,1.3-4.83,1.86s-3.3,1.23-4.97,1.4c-.26.03-.74,0-.87,0-.26.01-.1-.13.15.11.19.19.23.43.12.1-.09-.26-.1-.1-.18-.46-.2-.94-.13-1.93.29-2.83,1.1-2.36,4.16-3.06,6.51-3.16,3.92-.17,7.69.87,11.58-.02,1.13-.26.22-1.99-.17-2.46-.72-.87-1.82-1.54-2.97-1.28h0Z"/>
    <path class="cls-35" d="m155.76,201.08c3.2.68,6.44,1.59,9.7,1.93,2.29.24,5.19.23,7.1-1.27,2.18-1.72,2.31-4.55.86-6.8-1.76-2.73-5.07-4.67-8.28-5.03-3.87-.43-7.54,1.29-11.3,1.81-.59.08-.79.52-.65,1.05l.8,2.93,4.33,1.2c-2.19-4.85-2.14-10.45.19-15.25.77-1.59-3.55-4.08-4.26-2.61-2.52,5.21-2.63,11.37-.25,16.66.48,1.07,1.56,1.86,2.69,2.16.77.21,1.94.13,1.64-.96l-.8-2.93-.65,1.05c3.33-.45,6.69-2.08,10.09-1.82.53.04,1.01.15,1.46.38.25.12.53.32.8.63.76.86.96,2.04.53,3.1-.89,2.2-3.5,2.57-5.59,2.45-3.17-.18-6.33-1.13-9.45-1.79-.76-.16-1.94-.14-1.64.96.27,1.01,1.72,1.96,2.69,2.16h0Z"/>
    <g>
      <path class="cls-35" d="m228.87,131.97c2.96-.28,5.89-1.3,8.72-2.18,3.68-1.14,7.33-2.36,10.92-3.76,1.38-.54,2.78-1.08,4.1-1.77,1.71-.89,3.14-2.23,4.54-3.52,4.06-3.75,7.5-8.24,10.1-13.11,2.91-5.45,4.8-11.44,5.51-17.57.23-1.97-4.59-.89-4.8.86-1.17,10.18-5.67,19.85-12.79,27.24-.86.9-1.76,1.76-2.7,2.59-.41.36-.82.7-1.24,1.04,0,0-.9.63-.45.36.39-.24-.19.09-.31.15-.24.12-.48.24-.72.35s-.51.23-.77.34c-.16.07-.31.13-.47.2.56-.23-.13.05-.2.08-3.28,1.29-6.62,2.45-9.98,3.52-1.79.57-3.59,1.12-5.4,1.62-.34.09-.67.18-1.01.27.66-.17-.34.08-.49.11-.26.06-.52.12-.78.17-.23.04-1.05.13-.11.05-1.06.1-2.59.47-3.09,1.54-.46.98.54,1.52,1.43,1.44h0Z"/>
      <g>
        <path class="cls-25" d="m271.65,91.41c-2.85-.22-5.72-1.08-7.9-2.92s-3.53-4.79-3.01-7.6c.26-1.4,1.58-2.93,2.85-2.3,1.28.64,1.08,2.88,2.4,3.42.16-6.69,5.53-12.88,12.13-13.99.93-.16,1.95-.2,2.75.29,1.03.63,1.39,1.92,1.64,3.1.79,3.88,1.13,8.01-.24,11.73s-4.83,6.89-8.79,6.88"/>
        <path class="cls-35" d="m273.67,90.09c-3.31-.29-6.74-1.43-8.91-4.06-1.63-1.97-3.28-6.25-.82-8.26l-1.77,1.24.24-.15-1.91,1.02c1.87-.82,2.14,2.81,3.37,3.44.45.23,1.9-.86,2.27-1.09.39-.24,1.98-.97,2-1.53.12-3.39,1.48-6.57,3.72-9.11.22-.25,1.43-1.75,1.78-1.67s-1.34.62-.34.24c.41-.15.8-.33,1.22-.46,1.59-.49,3.77-.97,4.94.55,1.08,1.4,1.22,3.73,1.42,5.4.26,2.1.31,4.25-.07,6.34-.35,1.93-1.07,3.76-2.27,5.32-.21.27-.43.54-.66.79-.17.19-.35.37-.54.54-.6.5-.31.34.86-.46-.39,0-.94.31-1.35.38-.44.08-.89.11-1.34.12-.86.02-2.02,1-2.72,1.45-.24.15-1.56,1.19-1.32,1.18,1.97-.04,3.73-.81,5.42-1.77,1.92-1.08,3.81-2.32,5.29-3.98,2.83-3.19,3.45-7.58,3.06-11.69-.18-1.89-.31-4.33-1.33-5.99s-3.08-1.42-4.72-1.01c-3.83.95-7.73,3.35-10.54,6.08s-4.63,6.38-4.78,10.33l4.26-2.61c-1.61-.82-1.25-4.21-3.71-3.46-1.56.47-3.34,1.65-4.53,2.75-.85.78-1.27,1.77-1.36,2.9-.49,6.19,5.88,9.38,11.11,9.83.26.02.88-.38,1.06-.47.57-.3,1.12-.63,1.66-.98.23-.15,1.59-1.16,1.32-1.18h0Z"/>
      </g>
    </g>
    <g>
      <path class="cls-35" d="m60.09,119.34c-5.4.76-11.08,1.42-16.53,1.06-2.86-.19-5.33-1.97-7.56-3.68-3.33-2.54-6.26-5.63-8.74-9-2.83-3.85-5.07-8.11-6.65-12.62-.27-.77-1.78-1.49-2.44-1.89-.21-.13-1.79-.97-1.68-.63,3.14,8.98,8.93,16.71,16.34,22.63,2.09,1.67,4.3,3.2,6.59,4.59,1.79,1.09,3.71,2.33,5.7,3.02,2.69.93,6.08.47,8.85.3,3.35-.2,6.71-.5,10.03-.97.45-.06-1.11-1.21-1.23-1.3-.54-.39-1.93-1.62-2.69-1.51h0Z"/>
      <g>
        <path class="cls-9" d="m17.5,95.03c2.73-.84,5.34-2.31,7.06-4.59s2.39-5.45,1.27-8.07c-.56-1.3-2.19-2.51-3.29-1.61-1.11.91-.42,3.04-1.59,3.86-1.63-6.49-8.23-11.35-14.91-10.98-.94.05-1.95.23-2.62.89-.86.84-.94,2.18-.91,3.38.08,3.96.66,8.06,2.81,11.39s6.22,5.66,10.09,4.78"/>
        <path class="cls-35" d="m19.81,95.71c4.94-1.57,10.23-5.92,8.78-11.74-.75-3-3.84-4.03-6.67-4.23-1.07-.07-1.99.19-2.37,1.29-.35,1.02-.14,2.22-1.04,2.99l4.86,1.2c-2.05-7.77-10.06-11.92-17.65-12.3-1.63-.08-3.83-.16-4.96,1.25s-.72,3.89-.58,5.53c.33,4.02,1.44,8.28,4.44,11.16,1.63,1.56,3.65,2.58,5.79,3.23,2.35.71,4.85,1.17,7.29.68.51-.1-1.48-.89-1.57-.92-.92-.27-2.09-.65-3.06-.45-.47.09-.92.1-1.38.15-.58-.06-.46-.01.37.13.18.05.1.01-.25-.12-.71-.46-1.42-.83-2.06-1.39-1.46-1.28-2.55-2.91-3.28-4.7s-1.15-3.8-1.36-5.76c-.18-1.68-.51-3.85.06-5.48.63-1.8,2.83-2.1,4.5-1.81,1.07.19,2.12.86,3.01,1.47,2.83,1.93,4.95,4.85,5.82,8.16.16.61,1.82.88,2.33,1.01.59.14,1.99.64,2.53.19.63-.53.71-1.27.84-2.04.07-.4.12-.83.29-1.2.2-.44.58-.49.84-.8l-3.11-.75c.15.09.28.19.4.32.16.15.3.31.42.48.31.41.49.89.63,1.38.29,1.02.33,2.1.17,3.15-.68,4.51-4.59,7.29-8.67,8.59-.52.17,1.48.89,1.57.92.83.25,2.17.73,3.06.45h0Z"/>
      </g>
    </g>
    <circle class="cls-31" cx="122.26" cy="249.45" r=".51"/>
    <circle class="cls-11" cx="203.41" cy="134.14" r=".35"/>
  </g>
  <g id="face">
    <path class="cls-35" d="m129.6,58.77c-9.46-3.92-21.84-8.41-30.83-.85-3.89,3.27-5.43,8.29-5.92,13.19-.25,2.57-.27,5.15-.28,7.73,0,2.75.12,5.49.92,8.15,3.17,10.6,17.07,13.65,26.72,12.54,10.16-1.17,19.33-7.78,21.87-17.98s-4.59-22.53-15.48-24.12c-3.04-.45-1.73,3.95.51,4.28,7.55,1.11,12.23,8.64,11.15,15.98-1.28,8.64-8.57,15.01-16.79,16.96-4.43,1.05-9.17.88-13.58-.17-3.7-.88-8.15-2.41-9.92-6.08-.93-1.92-1.1-4.15-1.18-6.25s-.04-4.39.07-6.57c.21-4.21.79-8.81,3.54-12.21,2.94-3.63,7.68-5.13,12.22-5.15,5.74-.02,11.2,2.28,16.41,4.45.96.4,2.16.3,2.38-.91.21-1.14-.78-2.55-1.8-2.97h0Z"/>
    <path class="cls-35" d="m178.1,60.39c-3.3.48-6.45,2.75-9.02,4.73-2.42,1.86-5.6,4.34-6.6,7.36-.67,2.01-.57,4.51-.4,6.59.21,2.41.77,4.79,1.66,7.03,1.72,4.33,4.57,8.1,8.4,10.78,8.01,5.61,20.33,6.41,28.8,1.39s12.85-15.42,9.73-24.49c-2.02-5.88-7.62-8.53-12.94-10.9-5.96-2.66-13.08-4.58-19.46-2.2-1,.37.48.87.82.96,1.02.24,2.41.41,3.43.04,4.56-1.7,9.18.67,13.26,2.66,4.3,2.1,8.37,4.45,9.96,9.26,2.67,8.11-.88,17.4-7.48,22.52-3.14,2.44-7.08,3.97-11.08,4.05s-7.93-1.51-11.07-3.86c-6.73-5.04-10.12-13.96-8.91-22.21.48-3.26,3.48-5.71,5.9-7.66s5.51-4.41,8.43-4.83c.91-.13.85-.62.07-.92-1.07-.41-2.41-.44-3.52-.28h0Z"/>
    <g>
      <path class="cls-35" d="m165.24,77.77c1.43-2.02,5.6-2.06,8.2-.83,3.06,1.45,4.59,4.88,5.25,6.8.35,1,.69,2,.99,3.02.3,1.02.74,2.72.82,4.28.13,2.35-.5,6.39-2.17,7.01-3.95,1.46-16.59-15.35-13.1-20.27Z"/>
      <path class="cls-35" d="m166.93,79.61c1.32-1.71,3.93-1.81,5.89-1.42.9.18,1.84.52,2.51,1.08-.12-.1.25.32.23.29.31.44.57.92.8,1.4,1.02,2.15,1.76,4.59,2.18,6.93.38,2.14.27,4.61-.53,6.65-.24.62-.67,1.45-1.36,1.67-.26.08-.69,0-.91-.08-.08-.03-.65-.29-.31-.11-.25-.13-.49-.28-.73-.43.43.28-.35-.27-.47-.37-.09-.07-.52-.45-.08-.06-.14-.12-.27-.24-.41-.36s-.27-.26-.41-.39c-.49-.44.37.41-.09-.08-.28-.3-.56-.59-.84-.9-.14-.16-.28-.32-.42-.48.4.46-.07-.09-.12-.15-.28-.34-.55-.69-.82-1.04-.63-.83-.73-.97-1.34-1.9-.5-.76-.87-1.38-1.22-2.04-1.13-2.09-3.13-5.85-1.54-8.21.73-1.08-2.95-4.33-3.39-3.67-1.84,2.72.17,6.91,1.45,9.42,2.12,4.13,4.99,8,8.38,11.19,1.71,1.61,6.1,5.58,7.87,2.01,1.15-2.3,1.24-5.15.83-7.65-.46-2.85-1.41-5.84-2.72-8.41-1.62-3.19-4.28-6.39-7.73-7.66-2.41-.89-6.32-1.19-8.09,1.09-.76.99,2.86,4.37,3.39,3.67Z"/>
    </g>
    <g>
      <path class="cls-35" d="m135.7,79.91c1.31.27-5.73-3.23-8.93-3.13-1.36.04-2.61.74-3.74,1.51-5.35,3.65-6.07,10.17-10.83,15.62,0,0,9.8,3.86,16.07-1.32s7.43-12.68,7.43-12.68Z"/>
      <path class="cls-35" d="m134.8,81.96c1.54.26,3.73-.98,3.42-2.77-.15-.89-1-1.31-1.72-1.69-1.96-1.03-4.09-1.81-6.22-2.38-1.04-.28-2.12-.47-3.2-.43-2.05.09-3.89,1.1-5.53,2.26-2.56,1.8-4.31,4.34-5.8,7.04-1.71,3.11-3.12,6.31-5.46,9.04-.7.82-.63,2.34.49,2.77,3.87,1.51,8.35,2,12.43,1.19,6.39-1.26,11.05-6.76,13.44-12.56.62-1.49,1.16-3.09,1.42-4.69.46-2.89-4.35-2.1-4.73.33-.26,1.63-.59,2.49-1.37,4.23-1.24,2.79-3.15,5.64-5.71,7.37-2.33,1.57-5.41,1.74-8.14,1.39-1.19-.15-2.35-.41-3.51-.72-.42-.11.37.13-.2-.06-.14-.05-.28-.11-.42-.14-.12-.03-.24-.08-.35-.13l.49,2.77c2.12-2.47,3.61-5.34,5.09-8.22,1.23-2.4,2.53-4.87,4.73-6.53.48-.36,1.01-.72,1.57-.97.63-.27,1.06-.23,1.3-.19.99.17,1.91.39,2.83.7,1.04.36,2.07.77,3.07,1.24.34.16.69.32,1.02.5.12.06.24.14.36.2.19.12.13.07-.2-.13.29.24.16-.03-.38-.79l.88-2.03h-.01c.6-.24,1.19-.49,1.79-.73.53.05.68.05.44.02-1.22-.21-2.62.55-3.11,1.69s.14,2.22,1.32,2.42Z"/>
    </g>
    <g>
      <path class="cls-35" d="m136.55,115.7c5,1.07,10.08,2.03,15.18,1.79s10.29-1.79,14.11-5.19c-1.61,4.95-3.9,9.83-7.68,13.41s-9.26,5.68-14.3,4.39c-2.28-.58-4.34-1.8-6.24-3.19-3.97-2.91-7.49-6.98-8.03-11.87,1.86.37,3.69.9,5.45,1.59"/>
      <path class="cls-35" d="m134.61,116.72c5.96,1.28,12.02,2.31,18.13,1.59,5.51-.64,11.05-2.65,15.27-6.32l-4.52.88c-1.33,4.04-3.05,8.1-5.81,11.38-2.23,2.65-5.23,5.11-8.85,5.2-4.1.11-7.83-2.33-10.81-4.92s-5.53-6.13-6.05-10.25l-4.32,1.78c1.76.36,3.47.86,5.16,1.51.94.36,2.21-.1,3.08-.47.18-.08,2.13-1.1,1.39-1.39-1.87-.72-3.78-1.28-5.74-1.68-.81-.17-4.47.58-4.32,1.78.46,3.6,2.4,6.66,4.91,9.21s5.83,4.96,9.4,5.98c7.39,2.09,16.1-1.99,20.75-7.71,2.77-3.4,4.57-7.41,5.93-11.55.24-.72-1.39-.42-1.64-.37-1.01.19-2.09.56-2.88,1.24-6.89,5.99-17.1,3.8-25.18,2.07-1.05-.22-2.43.33-3.33.81-.42.22-1.59,1-.55,1.22h0Z"/>
    </g>
  </g>
</svg>